<?xml version="1.0" encoding="iso-8859-1"?>
<!-- Generator: Adobe Illustrator 18.0.0, SVG Export Plug-In . SVG Version: 6.00 Build 0)  -->
<!DOCTYPE svg PUBLIC "-//W3C//DTD SVG 1.1//EN" "http://www.w3.org/Graphics/SVG/1.1/DTD/svg11.dtd">
<svg xmlns="http://www.w3.org/2000/svg" xmlns:xlink="http://www.w3.org/1999/xlink" version="1.1" id="Capa_1" x="0px" y="0px" viewBox="0 0 433.35 433.35" style="enable-background:new 0 0 433.35 433.35;" xml:space="preserve" width="512px" height="512px">
<g>
	<path d="M384.176,205.336l5.553-37.477c1.072-7.238-1.06-14.585-5.84-20.126c-4.478-5.191-10.868-8.314-17.674-8.686V86.575   c0-25.563-20.798-46.36-46.361-46.36h-75.279c-25.051,0-38.35,10.578-48.061,18.303c-7.807,6.208-12.519,9.956-22.626,9.956H65.1   c-22.781,0-41.315,18.062-41.315,40.263v30.311c-6.806,0.372-13.195,3.495-17.674,8.686c-4.779,5.541-6.912,12.888-5.84,20.126   L30.467,371.66c1.827,12.338,12.417,21.475,24.89,21.475h274.577h4.709c0.012,0,0.023-0.001,0.036-0.001   c54.63-1.299,98.671-46.142,98.671-101.079C433.35,255.279,413.612,223.031,384.176,205.336z M54.08,139.009v-30.272   c0-6.239,5.603-9.967,11.02-9.967h108.787c20.688,0,32.219-9.172,41.484-16.542c8.552-6.802,14.732-11.716,29.203-11.716h75.279   c8.857,0,16.066,7.206,16.066,16.065v52.434H54.08z M331.881,368.894c-42.034,0-76.109-34.076-76.109-76.109   s34.075-76.109,76.109-76.109c42.034,0,76.108,34.076,76.108,76.109S373.915,368.894,331.881,368.894z" fill="#D80027"/>
	<path d="M375.224,266.427l-15.557-15.557c-1.951-1.953-5.119-1.953-7.07,0l-20.187,20.187l-20.186-20.187   c-1.951-1.953-5.119-1.953-7.07,0l-15.557,15.557c-1.953,1.952-1.953,5.118,0,7.07l20.187,20.186l-20.187,20.186   c-1.953,1.952-1.953,5.118,0,7.07l15.557,15.557c0.976,0.977,2.256,1.465,3.535,1.465c1.279,0,2.56-0.488,3.535-1.465   l20.186-20.187l20.187,20.187c0.976,0.977,2.256,1.465,3.535,1.465c1.279,0,2.56-0.488,3.535-1.465l15.557-15.557   c1.953-1.952,1.953-5.118,0-7.07l-20.187-20.186l20.187-20.186C377.177,271.545,377.177,268.379,375.224,266.427z" fill="#D80027"/>
</g>
<g>
</g>
<g>
</g>
<g>
</g>
<g>
</g>
<g>
</g>
<g>
</g>
<g>
</g>
<g>
</g>
<g>
</g>
<g>
</g>
<g>
</g>
<g>
</g>
<g>
</g>
<g>
</g>
<g>
</g>
</svg>
